<?xml version="1.0" encoding="UTF-8" standalone="no"?><svg xmlns="http://www.w3.org/2000/svg" xmlns:xlink="http://www.w3.org/1999/xlink" contentScriptType="application/ecmascript" contentStyleType="text/css" height="101px" preserveAspectRatio="none" style="width:302px;height:101px;" version="1.1" viewBox="0 0 302 101" width="302px" zoomAndPan="magnify"><defs><filter height="300%" id="f1rjh77kqubyv7" width="300%" x="-1" y="-1"><feGaussianBlur result="blurOut" stdDeviation="2.0"/><feColorMatrix in="blurOut" result="blurOut2" type="matrix" values="0 0 0 0 0 0 0 0 0 0 0 0 0 0 0 0 0 0 .4 0"/><feOffset dx="4.0" dy="4.0" in="blurOut2" result="blurOut3"/><feBlend in="SourceGraphic" in2="blurOut3" mode="normal"/></filter></defs><g><!--entity device--><ellipse cx="28.5" cy="18" fill="#FEFECE" filter="url(#f1rjh77kqubyv7)" rx="8" ry="8" style="stroke: #A80036; stroke-width: 2.0;"/><path d="M28.5,26 L28.5,53 M15.5,34 L41.5,34 M28.5,53 L15.5,68 M28.5,53 L41.5,68 " fill="none" filter="url(#f1rjh77kqubyv7)" style="stroke: #A80036; stroke-width: 2.0;"/><text fill="#000000" font-family="sans-serif" font-size="14" lengthAdjust="spacingAndGlyphs" textLength="45" x="6" y="87.9951">device</text><rect fill="#FEFECE" filter="url(#f1rjh77kqubyv7)" height="47.9375" style="stroke: #A80036; stroke-width: 1.5;" width="97" x="194" y="25.5"/><text fill="#000000" font-family="sans-serif" font-size="12" font-style="italic" lengthAdjust="spacingAndGlyphs" textLength="51" x="217" y="36.6387">«active»</text><text fill="#000000" font-family="sans-serif" font-size="12" lengthAdjust="spacingAndGlyphs" text-decoration="underline" textLength="83" x="201" y="52.6074">driver : Driver</text><line style="stroke: #000000; stroke-width: 1.0;" x1="201" x2="284" y1="54.6074" y2="54.6074"/><line style="stroke: #A80036; stroke-width: 1.5;" x1="195" x2="290" y1="57.4375" y2="57.4375"/><!--link device to driver--><path d="M51.3892,49.5 C84.8196,49.5 149.401,49.5 193.948,49.5 " fill="none" id="device-driver" style="stroke: #FFFFFF; stroke-width: 1.0;"/><text fill="#000000" font-family="sans-serif" font-size="13" lengthAdjust="spacingAndGlyphs" textLength="68" x="82" y="45.5669">write(byte)</text><polygon fill="#000000" points="153,39.5664,159,42.5664,153,45.5664,153,39.5664" style="stroke: #000000; stroke-width: 1.0;"/><!--link device to driver--><path d="M51.2483,62.7598 C60.1385,67.4478 70.7327,72.1396 81,74.5 C116.951,82.7648 127.559,80.2321 164,74.5 C173.776,72.9622 184,70.3962 193.697,67.4793 " fill="none" id="device-driver" style="stroke: #A80036; stroke-width: 1.0;"/><polygon fill="#000000" points="91.5,64.5664,85.5,67.5664,91.5,70.5664,91.5,64.5664" style="stroke: #000000; stroke-width: 1.0;"/><text fill="#000000" font-family="sans-serif" font-size="13" lengthAdjust="spacingAndGlyphs" textLength="63" x="97.5" y="70.5669">askData()</text><!--
@startuml
left to right direction
hide circle
			allowmixing

					actor "device" as device
					
					object "<u>driver : Driver</u>" as driver <<active>> {
						
						
					}
					
					
				
					
					
				
					device -[#transparent]- driver : > write(byte)
					device - - driver : < askData()
@enduml

PlantUML version 1.2019.03(Sun Mar 10 12:04:44 CET 2019)
(GPL source distribution)
Java Runtime: OpenJDK Runtime Environment
JVM: OpenJDK 64-Bit Server VM
Java Version: 1.8.0_265-8u265-b01-0ubuntu2~16.04-b01
Operating System: Linux
OS Version: 4.4.0-186-generic
Default Encoding: UTF-8
Language: fr
Country: FR
--></g></svg>