<?xml version="1.0" encoding="UTF-8" standalone="no"?><svg xmlns="http://www.w3.org/2000/svg" xmlns:xlink="http://www.w3.org/1999/xlink" contentScriptType="application/ecmascript" contentStyleType="text/css" height="381px" preserveAspectRatio="none" style="width:215px;height:381px;" version="1.1" viewBox="0 0 215 381" width="215px" zoomAndPan="magnify"><defs><filter height="300%" id="foayvahftuvm" width="300%" x="-1" y="-1"><feGaussianBlur result="blurOut" stdDeviation="2.0"/><feColorMatrix in="blurOut" result="blurOut2" type="matrix" values="0 0 0 0 0 0 0 0 0 0 0 0 0 0 0 0 0 0 .4 0"/><feOffset dx="4.0" dy="4.0" in="blurOut2" result="blurOut3"/><feBlend in="SourceGraphic" in2="blurOut3" mode="normal"/></filter></defs><g><!--entity device--><ellipse cx="100.5" cy="18" fill="#FEFECE" filter="url(#foayvahftuvm)" rx="8" ry="8" style="stroke: #A80036; stroke-width: 2.0;"/><path d="M100.5,26 L100.5,53 M87.5,34 L113.5,34 M100.5,53 L87.5,68 M100.5,53 L113.5,68 " fill="none" filter="url(#foayvahftuvm)" style="stroke: #A80036; stroke-width: 2.0;"/><text fill="#000000" font-family="sans-serif" font-size="14" lengthAdjust="spacingAndGlyphs" textLength="45" x="78" y="87.9951">device</text><rect fill="#FEFECE" filter="url(#foayvahftuvm)" height="47.9375" style="stroke: #A80036; stroke-width: 1.5;" width="97" x="52" y="168"/><text fill="#000000" font-family="sans-serif" font-size="12" font-style="italic" lengthAdjust="spacingAndGlyphs" textLength="51" x="75" y="179.1387">«active»</text><text fill="#000000" font-family="sans-serif" font-size="12" lengthAdjust="spacingAndGlyphs" text-decoration="underline" textLength="83" x="59" y="195.1074">driver : Driver</text><line style="stroke: #000000; stroke-width: 1.0;" x1="59" x2="142" y1="197.1074" y2="197.1074"/><line style="stroke: #A80036; stroke-width: 1.5;" x1="53" x2="148" y1="199.9375" y2="199.9375"/><rect fill="#FEFECE" filter="url(#foayvahftuvm)" height="47.9375" style="stroke: #A80036; stroke-width: 1.5;" width="189" x="6" y="323"/><text fill="#000000" font-family="sans-serif" font-size="12" font-style="italic" lengthAdjust="spacingAndGlyphs" textLength="51" x="75" y="334.1387">«active»</text><text fill="#000000" font-family="sans-serif" font-size="12" lengthAdjust="spacingAndGlyphs" text-decoration="underline" textLength="175" x="13" y="350.1074">memoryBlock : MemoryBlock</text><line style="stroke: #000000; stroke-width: 1.0;" x1="13" x2="188" y1="352.1074" y2="352.1074"/><line style="stroke: #A80036; stroke-width: 1.5;" x1="7" x2="194" y1="354.9375" y2="354.9375"/><!--link device to driver--><path d="M77.8022,67.786 C62.9349,80.623 44.7781,99.565 36.5,121 C29.4998,139.126 42.5506,155.414 58.6551,167.708 " fill="none" id="device-driver" style="stroke: #FFFFFF; stroke-width: 1.0;"/><text fill="#000000" font-family="sans-serif" font-size="13" lengthAdjust="spacingAndGlyphs" textLength="68" x="37.5" y="134.0669">write(byte)</text><polygon fill="#000000" points="67,143.1328,70,149.1328,73,143.1328,67,143.1328" style="stroke: #000000; stroke-width: 1.0;"/><!--link device to driver--><path d="M119.27,91.244 C123.882,105.905 126.693,122.621 123.5,138 C121.379,148.214 117.186,158.876 112.954,167.937 " fill="none" id="device-driver" style="stroke: #A80036; stroke-width: 1.0;"/><polygon fill="#000000" points="152.5,132,155.5,126,158.5,132,152.5,132" style="stroke: #000000; stroke-width: 1.0;"/><text fill="#000000" font-family="sans-serif" font-size="13" lengthAdjust="spacingAndGlyphs" textLength="63" x="125.5" y="147.0669">askData()</text><!--link driver to memoryBlock--><path d="M100.5,216.237 C100.5,244.995 100.5,293.6862 100.5,322.5439 " fill="none" id="driver-memoryBlock" style="stroke: #A80036; stroke-width: 1.0;"/><text fill="#000000" font-family="sans-serif" font-size="13" lengthAdjust="spacingAndGlyphs" textLength="77" x="114" y="259.0669">malloc(size)</text><text fill="#000000" font-family="sans-serif" font-size="13" lengthAdjust="spacingAndGlyphs" textLength="102" x="101.5" y="274.1997">set(offset, byte)</text><text fill="#000000" font-family="sans-serif" font-size="13" lengthAdjust="spacingAndGlyphs" textLength="35" x="135" y="289.3325">free()</text><polygon fill="#000000" points="148,298.3984,151,304.3984,154,298.3984,148,298.3984" style="stroke: #000000; stroke-width: 1.0;"/><!--
@startuml
hide circle
			allowmixing

					actor "device" as device
					
					object "<u>driver : Driver</u>" as driver <<active>> {
						
						
					}
					
					
				
					object "<u>memoryBlock : MemoryBlock</u>" as memoryBlock <<active>> {
						
						
					}
					
					
				
					device -[#transparent]- driver : > write(byte)
					device - - driver : < askData()
					driver - - memoryBlock : > malloc(size)\nset(offset, byte)\nfree()
@enduml

PlantUML version 1.2019.03(Sun Mar 10 12:04:44 CET 2019)
(GPL source distribution)
Java Runtime: OpenJDK Runtime Environment
JVM: OpenJDK 64-Bit Server VM
Java Version: 1.8.0_265-8u265-b01-0ubuntu2~16.04-b01
Operating System: Linux
OS Version: 4.4.0-186-generic
Default Encoding: UTF-8
Language: fr
Country: FR
--></g></svg>